<mxfile host="Electron" modified="2023-04-25T02:58:31.275Z" agent="Mozilla/5.0 (Windows NT 10.0; Win64; x64) AppleWebKit/537.36 (KHTML, like Gecko) draw.io/21.1.2 Chrome/106.0.5249.199 Electron/21.4.3 Safari/537.36" etag="mMCTXVOSZl47Q-nVWI9y" version="21.1.2" type="device" pages="3">
  <diagram name="點擊按鈕.更新授權" id="ExV0FnkpSK99u8FAhtom">
    <mxGraphModel dx="1098" dy="828" grid="1" gridSize="10" guides="1" tooltips="1" connect="1" arrows="1" fold="1" page="1" pageScale="1" pageWidth="827" pageHeight="1169" math="0" shadow="0">
      <root>
        <mxCell id="0" />
        <mxCell id="1" parent="0" />
        <mxCell id="PdiU-n0DYKwx4rLSvW22-1" value="站台管理 更新授權" style="swimlane;childLayout=stackLayout;resizeParent=1;resizeParentMax=0;startSize=20;html=1;" vertex="1" parent="1">
          <mxGeometry x="230" y="190" width="440" height="350" as="geometry" />
        </mxCell>
        <mxCell id="PdiU-n0DYKwx4rLSvW22-2" value="站台管理員" style="swimlane;startSize=20;html=1;" vertex="1" parent="PdiU-n0DYKwx4rLSvW22-1">
          <mxGeometry y="20" width="220" height="330" as="geometry" />
        </mxCell>
        <mxCell id="PdiU-n0DYKwx4rLSvW22-3" value="點擊按鈕.更新授權" style="rounded=1;whiteSpace=wrap;html=1;" vertex="1" parent="PdiU-n0DYKwx4rLSvW22-2">
          <mxGeometry x="49.999999999999545" y="50" width="120" height="60" as="geometry" />
        </mxCell>
        <mxCell id="PdiU-n0DYKwx4rLSvW22-4" value="顯示畫面" style="rounded=1;whiteSpace=wrap;html=1;" vertex="1" parent="PdiU-n0DYKwx4rLSvW22-2">
          <mxGeometry x="49.999999999999545" y="190" width="120" height="60" as="geometry" />
        </mxCell>
        <mxCell id="PdiU-n0DYKwx4rLSvW22-5" value="表單.站台授權管理" style="swimlane;startSize=20;html=1;" vertex="1" parent="PdiU-n0DYKwx4rLSvW22-1">
          <mxGeometry x="220" y="20" width="220" height="330" as="geometry" />
        </mxCell>
        <mxCell id="PdiU-n0DYKwx4rLSvW22-6" value="顯示更新授權區塊" style="rounded=0;whiteSpace=wrap;html=1;" vertex="1" parent="PdiU-n0DYKwx4rLSvW22-5">
          <mxGeometry x="49.999999999999545" y="50" width="120" height="60" as="geometry" />
        </mxCell>
        <mxCell id="PdiU-n0DYKwx4rLSvW22-7" style="edgeStyle=orthogonalEdgeStyle;rounded=0;orthogonalLoop=1;jettySize=auto;html=1;" edge="1" parent="PdiU-n0DYKwx4rLSvW22-1" source="PdiU-n0DYKwx4rLSvW22-3" target="PdiU-n0DYKwx4rLSvW22-6">
          <mxGeometry relative="1" as="geometry" />
        </mxCell>
        <mxCell id="PdiU-n0DYKwx4rLSvW22-8" style="edgeStyle=orthogonalEdgeStyle;rounded=0;orthogonalLoop=1;jettySize=auto;html=1;entryX=1;entryY=0.5;entryDx=0;entryDy=0;exitX=0.5;exitY=1;exitDx=0;exitDy=0;" edge="1" parent="PdiU-n0DYKwx4rLSvW22-1" source="PdiU-n0DYKwx4rLSvW22-6" target="PdiU-n0DYKwx4rLSvW22-4">
          <mxGeometry relative="1" as="geometry" />
        </mxCell>
      </root>
    </mxGraphModel>
  </diagram>
  <diagram id="j8g78R1In264O_NZL1fl" name="點擊按鈕.線上啟用">
    <mxGraphModel dx="1098" dy="828" grid="1" gridSize="10" guides="1" tooltips="1" connect="1" arrows="1" fold="1" page="1" pageScale="1" pageWidth="827" pageHeight="1169" math="0" shadow="0">
      <root>
        <mxCell id="0" />
        <mxCell id="1" parent="0" />
        <mxCell id="JXmBsqvJzEpAkUQROczv-1" value="站台管理 線上啟用" style="swimlane;childLayout=stackLayout;resizeParent=1;resizeParentMax=0;startSize=20;html=1;" vertex="1" parent="1">
          <mxGeometry x="230" y="190" width="790" height="600" as="geometry" />
        </mxCell>
        <mxCell id="JXmBsqvJzEpAkUQROczv-2" value="站台管理員" style="swimlane;startSize=20;html=1;" vertex="1" parent="JXmBsqvJzEpAkUQROczv-1">
          <mxGeometry y="20" width="220" height="580" as="geometry" />
        </mxCell>
        <mxCell id="JXmBsqvJzEpAkUQROczv-3" value="點擊按鈕.線上啟用" style="rounded=1;whiteSpace=wrap;html=1;" vertex="1" parent="JXmBsqvJzEpAkUQROczv-2">
          <mxGeometry x="49.999999999999545" y="50" width="120" height="60" as="geometry" />
        </mxCell>
        <mxCell id="JXmBsqvJzEpAkUQROczv-4" value="執行結束" style="rounded=1;whiteSpace=wrap;html=1;" vertex="1" parent="JXmBsqvJzEpAkUQROczv-2">
          <mxGeometry x="49.999999999999545" y="490" width="120" height="60" as="geometry" />
        </mxCell>
        <mxCell id="JXmBsqvJzEpAkUQROczv-5" value="表單.站台授權管理" style="swimlane;startSize=20;html=1;" vertex="1" parent="JXmBsqvJzEpAkUQROczv-1">
          <mxGeometry x="220" y="20" width="570" height="580" as="geometry" />
        </mxCell>
        <mxCell id="JXmBsqvJzEpAkUQROczv-14" value="" style="edgeStyle=orthogonalEdgeStyle;rounded=0;orthogonalLoop=1;jettySize=auto;html=1;" edge="1" parent="JXmBsqvJzEpAkUQROczv-5" source="JXmBsqvJzEpAkUQROczv-9" target="JXmBsqvJzEpAkUQROczv-13">
          <mxGeometry relative="1" as="geometry" />
        </mxCell>
        <mxCell id="JXmBsqvJzEpAkUQROczv-23" value="" style="edgeStyle=orthogonalEdgeStyle;rounded=0;orthogonalLoop=1;jettySize=auto;html=1;" edge="1" parent="JXmBsqvJzEpAkUQROczv-5" source="JXmBsqvJzEpAkUQROczv-9" target="JXmBsqvJzEpAkUQROczv-22">
          <mxGeometry relative="1" as="geometry" />
        </mxCell>
        <mxCell id="JXmBsqvJzEpAkUQROczv-9" value="授權檔案&lt;br&gt;不為空" style="rhombus;whiteSpace=wrap;html=1;" vertex="1" parent="JXmBsqvJzEpAkUQROczv-5">
          <mxGeometry x="80" y="40" width="80" height="80" as="geometry" />
        </mxCell>
        <mxCell id="JXmBsqvJzEpAkUQROczv-13" value="顯示錯誤訊息" style="whiteSpace=wrap;html=1;" vertex="1" parent="JXmBsqvJzEpAkUQROczv-5">
          <mxGeometry x="60" y="210" width="120" height="60" as="geometry" />
        </mxCell>
        <mxCell id="JXmBsqvJzEpAkUQROczv-25" value="" style="edgeStyle=orthogonalEdgeStyle;rounded=0;orthogonalLoop=1;jettySize=auto;html=1;" edge="1" parent="JXmBsqvJzEpAkUQROczv-5" source="JXmBsqvJzEpAkUQROczv-22" target="JXmBsqvJzEpAkUQROczv-24">
          <mxGeometry relative="1" as="geometry" />
        </mxCell>
        <mxCell id="JXmBsqvJzEpAkUQROczv-28" value="" style="edgeStyle=orthogonalEdgeStyle;rounded=0;orthogonalLoop=1;jettySize=auto;html=1;" edge="1" parent="JXmBsqvJzEpAkUQROczv-5" source="JXmBsqvJzEpAkUQROczv-22" target="JXmBsqvJzEpAkUQROczv-27">
          <mxGeometry relative="1" as="geometry" />
        </mxCell>
        <mxCell id="JXmBsqvJzEpAkUQROczv-22" value="授權中心&lt;br&gt;可連線" style="rhombus;whiteSpace=wrap;html=1;" vertex="1" parent="JXmBsqvJzEpAkUQROczv-5">
          <mxGeometry x="240" y="40" width="80" height="80" as="geometry" />
        </mxCell>
        <mxCell id="JXmBsqvJzEpAkUQROczv-24" value="顯示離線啟用畫面" style="whiteSpace=wrap;html=1;" vertex="1" parent="JXmBsqvJzEpAkUQROczv-5">
          <mxGeometry x="220" y="210" width="120" height="60" as="geometry" />
        </mxCell>
        <mxCell id="JXmBsqvJzEpAkUQROczv-30" value="" style="edgeStyle=orthogonalEdgeStyle;rounded=0;orthogonalLoop=1;jettySize=auto;html=1;" edge="1" parent="JXmBsqvJzEpAkUQROczv-5" source="JXmBsqvJzEpAkUQROczv-27" target="JXmBsqvJzEpAkUQROczv-29">
          <mxGeometry relative="1" as="geometry" />
        </mxCell>
        <mxCell id="JXmBsqvJzEpAkUQROczv-27" value="執行線上啟用" style="whiteSpace=wrap;html=1;" vertex="1" parent="JXmBsqvJzEpAkUQROczv-5">
          <mxGeometry x="377" y="210" width="120" height="60" as="geometry" />
        </mxCell>
        <mxCell id="JXmBsqvJzEpAkUQROczv-29" value="更新站台啟用狀態" style="whiteSpace=wrap;html=1;" vertex="1" parent="JXmBsqvJzEpAkUQROczv-5">
          <mxGeometry x="377" y="350" width="120" height="60" as="geometry" />
        </mxCell>
        <mxCell id="JXmBsqvJzEpAkUQROczv-10" style="edgeStyle=orthogonalEdgeStyle;rounded=0;orthogonalLoop=1;jettySize=auto;html=1;" edge="1" parent="JXmBsqvJzEpAkUQROczv-1" source="JXmBsqvJzEpAkUQROczv-3" target="JXmBsqvJzEpAkUQROczv-9">
          <mxGeometry relative="1" as="geometry" />
        </mxCell>
        <mxCell id="JXmBsqvJzEpAkUQROczv-15" style="edgeStyle=orthogonalEdgeStyle;rounded=0;orthogonalLoop=1;jettySize=auto;html=1;" edge="1" parent="JXmBsqvJzEpAkUQROczv-1" source="JXmBsqvJzEpAkUQROczv-13" target="JXmBsqvJzEpAkUQROczv-4">
          <mxGeometry relative="1" as="geometry" />
        </mxCell>
        <mxCell id="JXmBsqvJzEpAkUQROczv-26" style="edgeStyle=orthogonalEdgeStyle;rounded=0;orthogonalLoop=1;jettySize=auto;html=1;entryX=1;entryY=0.5;entryDx=0;entryDy=0;exitX=0.5;exitY=1;exitDx=0;exitDy=0;" edge="1" parent="JXmBsqvJzEpAkUQROczv-1" source="JXmBsqvJzEpAkUQROczv-24" target="JXmBsqvJzEpAkUQROczv-4">
          <mxGeometry relative="1" as="geometry" />
        </mxCell>
        <mxCell id="JXmBsqvJzEpAkUQROczv-31" style="edgeStyle=orthogonalEdgeStyle;rounded=0;orthogonalLoop=1;jettySize=auto;html=1;entryX=1;entryY=0.5;entryDx=0;entryDy=0;exitX=0.5;exitY=1;exitDx=0;exitDy=0;" edge="1" parent="JXmBsqvJzEpAkUQROczv-1" source="JXmBsqvJzEpAkUQROczv-29" target="JXmBsqvJzEpAkUQROczv-4">
          <mxGeometry relative="1" as="geometry" />
        </mxCell>
      </root>
    </mxGraphModel>
  </diagram>
  <diagram id="zYc5yaQm_yC9UXWHvinz" name="點擊按鈕.離線啟用">
    <mxGraphModel dx="1098" dy="828" grid="1" gridSize="10" guides="1" tooltips="1" connect="1" arrows="1" fold="1" page="1" pageScale="1" pageWidth="827" pageHeight="1169" math="0" shadow="0">
      <root>
        <mxCell id="0" />
        <mxCell id="1" parent="0" />
        <mxCell id="TXJ2iMcJb-vgF9wojHui-1" value="站台管理 更新授權" style="swimlane;childLayout=stackLayout;resizeParent=1;resizeParentMax=0;startSize=20;html=1;" vertex="1" parent="1">
          <mxGeometry x="230" y="190" width="600" height="450" as="geometry" />
        </mxCell>
        <mxCell id="TXJ2iMcJb-vgF9wojHui-2" value="站台管理員" style="swimlane;startSize=20;html=1;" vertex="1" parent="TXJ2iMcJb-vgF9wojHui-1">
          <mxGeometry y="20" width="220" height="430" as="geometry" />
        </mxCell>
        <mxCell id="TXJ2iMcJb-vgF9wojHui-3" value="點擊按鈕.離線啟用" style="rounded=1;whiteSpace=wrap;html=1;" vertex="1" parent="TXJ2iMcJb-vgF9wojHui-2">
          <mxGeometry x="49.999999999999545" y="50" width="120" height="60" as="geometry" />
        </mxCell>
        <mxCell id="TXJ2iMcJb-vgF9wojHui-4" value="執行結束" style="rounded=1;whiteSpace=wrap;html=1;" vertex="1" parent="TXJ2iMcJb-vgF9wojHui-2">
          <mxGeometry x="49.999999999999545" y="345" width="120" height="60" as="geometry" />
        </mxCell>
        <mxCell id="TXJ2iMcJb-vgF9wojHui-5" value="表單.站台授權管理" style="swimlane;startSize=20;html=1;" vertex="1" parent="TXJ2iMcJb-vgF9wojHui-1">
          <mxGeometry x="220" y="20" width="380" height="430" as="geometry" />
        </mxCell>
        <mxCell id="TXJ2iMcJb-vgF9wojHui-6" value="" style="edgeStyle=orthogonalEdgeStyle;rounded=0;orthogonalLoop=1;jettySize=auto;html=1;" edge="1" parent="TXJ2iMcJb-vgF9wojHui-5" source="TXJ2iMcJb-vgF9wojHui-8" target="TXJ2iMcJb-vgF9wojHui-9">
          <mxGeometry relative="1" as="geometry" />
        </mxCell>
        <mxCell id="TXJ2iMcJb-vgF9wojHui-7" value="" style="edgeStyle=orthogonalEdgeStyle;rounded=0;orthogonalLoop=1;jettySize=auto;html=1;" edge="1" parent="TXJ2iMcJb-vgF9wojHui-5" source="TXJ2iMcJb-vgF9wojHui-8" target="TXJ2iMcJb-vgF9wojHui-16">
          <mxGeometry relative="1" as="geometry">
            <mxPoint x="240" y="80" as="targetPoint" />
          </mxGeometry>
        </mxCell>
        <mxCell id="TXJ2iMcJb-vgF9wojHui-8" value="授權檔案&lt;br&gt;不為空" style="rhombus;whiteSpace=wrap;html=1;" vertex="1" parent="TXJ2iMcJb-vgF9wojHui-5">
          <mxGeometry x="80" y="40" width="80" height="80" as="geometry" />
        </mxCell>
        <mxCell id="TXJ2iMcJb-vgF9wojHui-9" value="顯示錯誤訊息" style="whiteSpace=wrap;html=1;" vertex="1" parent="TXJ2iMcJb-vgF9wojHui-5">
          <mxGeometry x="60" y="210" width="120" height="60" as="geometry" />
        </mxCell>
        <mxCell id="TXJ2iMcJb-vgF9wojHui-16" value="更新站台啟用狀態" style="whiteSpace=wrap;html=1;" vertex="1" parent="TXJ2iMcJb-vgF9wojHui-5">
          <mxGeometry x="225" y="210" width="120" height="60" as="geometry" />
        </mxCell>
        <mxCell id="TXJ2iMcJb-vgF9wojHui-17" style="edgeStyle=orthogonalEdgeStyle;rounded=0;orthogonalLoop=1;jettySize=auto;html=1;" edge="1" parent="TXJ2iMcJb-vgF9wojHui-1" source="TXJ2iMcJb-vgF9wojHui-3" target="TXJ2iMcJb-vgF9wojHui-8">
          <mxGeometry relative="1" as="geometry" />
        </mxCell>
        <mxCell id="TXJ2iMcJb-vgF9wojHui-18" style="edgeStyle=orthogonalEdgeStyle;rounded=0;orthogonalLoop=1;jettySize=auto;html=1;" edge="1" parent="TXJ2iMcJb-vgF9wojHui-1" source="TXJ2iMcJb-vgF9wojHui-9" target="TXJ2iMcJb-vgF9wojHui-4">
          <mxGeometry relative="1" as="geometry" />
        </mxCell>
        <mxCell id="TXJ2iMcJb-vgF9wojHui-20" style="edgeStyle=orthogonalEdgeStyle;rounded=0;orthogonalLoop=1;jettySize=auto;html=1;entryX=1;entryY=0.5;entryDx=0;entryDy=0;exitX=0.5;exitY=1;exitDx=0;exitDy=0;" edge="1" parent="TXJ2iMcJb-vgF9wojHui-1" source="TXJ2iMcJb-vgF9wojHui-16" target="TXJ2iMcJb-vgF9wojHui-4">
          <mxGeometry relative="1" as="geometry" />
        </mxCell>
      </root>
    </mxGraphModel>
  </diagram>
</mxfile>
